<svg width="24" height="24" viewBox="0 0 24 24" fill="none" xmlns="http://www.w3.org/2000/svg">
<path fill-rule="evenodd" clip-rule="evenodd" d="M8.83562 1C9.58195 0.999992 10.31 1.23081 10.92 1.66083C11.53 2.09084 11.9921 2.69899 12.2429 3.40192H23V4.91781L20.2877 6.74531V21.4931H22.0959C22.2557 21.4931 22.4091 21.5567 22.5221 21.6697C22.6351 21.7827 22.6986 21.936 22.6986 22.0959C22.6986 22.2557 22.6351 22.4091 22.5221 22.5221C22.4091 22.6351 22.2557 22.6986 22.0959 22.6986H20.2877V22.7077H3.41096V22.6986H1.60274C1.44288 22.6986 1.28957 22.6351 1.17654 22.5221C1.0635 22.4091 1 22.2557 1 22.0959C1 21.936 1.0635 21.7827 1.17654 21.6697C1.28957 21.5567 1.44288 21.4931 1.60274 21.4931H3.41096V6.72422L1 4.89792V3.40131H5.42833C5.67924 2.6985 6.14136 2.09048 6.75135 1.66058C7.36134 1.23068 8.08936 0.999948 8.83562 1ZM9.43836 4.0137V2.80822H8.23288V4.0137H7.0274V5.21918H8.23288V6.42466H9.43836V5.21918H10.6438V4.0137H9.43836ZM17.8767 11.8493V21.4931H13.0548V11.8493H17.8767ZM10.0411 11.8493H5.82192V16.0685H10.0411V11.8493Z" fill="#616161"/>
</svg>
