<svg width="24" height="24" viewBox="0 0 24 24" fill="none" xmlns="http://www.w3.org/2000/svg">
<path fill-rule="evenodd" clip-rule="evenodd" d="M6.1535 17.7701C5.78481 17.996 5.5078 18.3449 5.37143 18.7552C5.23505 19.1655 5.24807 19.6108 5.4082 20.0124C5.56833 20.414 5.86526 20.7461 6.24652 20.9501C6.62779 21.154 7.06886 21.2166 7.49181 21.1268C7.91476 21.037 8.29238 20.8007 8.55794 20.4595C8.82351 20.1183 8.95993 19.6942 8.94312 19.2621C8.92631 18.8301 8.75733 18.4179 8.46605 18.0984C8.17477 17.7788 7.77993 17.5725 7.35128 17.5159C7.32838 17.4339 7.30739 17.3514 7.28833 17.2684C7.20477 16.8908 7.1395 16.5095 7.09278 16.1256C7.04229 15.7376 7.01373 15.3471 7.00722 14.9559C7.00595 14.8485 7.00901 14.7411 7.01639 14.6339C7.25106 14.5667 7.48694 14.5056 7.72222 14.4524C7.99172 14.3913 8.15183 14.7091 8.28078 14.9669L8.33333 15.0702H15.5133C15.6532 14.805 15.9704 14.3821 16.2778 14.4524C16.6053 14.5269 16.9347 14.6156 17.2611 14.717L17.2592 14.7176C17.2592 14.7176 17.258 14.7164 17.2592 14.7188C17.2617 14.7274 17.2751 14.7677 17.2886 14.8533C17.3038 14.9523 17.3142 15.0806 17.3191 15.2352C17.3277 15.5432 17.3099 15.9178 17.2739 16.2955C17.2372 16.6726 17.1828 17.0374 17.1217 17.3252C17.1083 17.3894 17.0948 17.4474 17.0814 17.5H16.2778C16.1643 17.5001 16.0531 17.5317 15.9566 17.5914C15.8601 17.6511 15.7822 17.7365 15.7314 17.8379L15.1203 19.0602C15.0778 19.145 15.0556 19.2385 15.0556 19.3333V20.5556C15.0556 20.7176 15.1199 20.8731 15.2345 20.9877C15.3492 21.1023 15.5046 21.1667 15.6667 21.1667H16.8889V19.9444H16.2778V19.4776L16.6554 18.7222H18.3446L18.7222 19.4776V19.9444H18.1111V21.1667H19.3333C19.4954 21.1667 19.6508 21.1023 19.7655 20.9877C19.8801 20.8731 19.9444 20.7176 19.9444 20.5556V19.3333C19.9444 19.2385 19.9222 19.145 19.8797 19.0602L19.2686 17.8379C19.2178 17.7365 19.1399 17.6511 19.0434 17.5914C18.9469 17.5317 18.8357 17.5001 18.7222 17.5H18.3336C18.3989 17.1743 18.4533 16.7942 18.49 16.4128C18.5303 16.0009 18.5511 15.5738 18.5407 15.201L18.5401 15.1839C20.9772 16.2136 23 17.907 23 19.6817V23H1V19.6817C1 17.8288 3.20611 16.0639 5.78561 15.0513C5.79233 15.4314 5.82839 15.861 5.88033 16.2772C5.93656 16.7263 6.01294 17.1731 6.09728 17.5409C6.11561 17.6198 6.13394 17.6962 6.1535 17.7701ZM7.11111 19.9536C7.43989 19.9536 7.72222 19.6847 7.72222 19.3333C7.72222 18.9826 7.43989 18.7131 7.11111 18.7131C6.78233 18.7131 6.5 18.9819 6.5 19.3333C6.5 19.6841 6.78233 19.9536 7.11111 19.9536ZM12 12C13.2966 12 14.5401 11.4849 15.457 10.5681C16.3738 9.65123 16.8889 8.40773 16.8889 7.11111C16.8889 5.8145 16.3738 4.57099 15.457 3.65414C14.5401 2.7373 13.2966 2.22222 12 2.22222C10.7034 2.22222 9.45988 2.7373 8.54303 3.65414C7.62619 4.57099 7.11111 5.8145 7.11111 7.11111C7.11111 8.40773 7.62619 9.65123 8.54303 10.5681C9.45988 11.4849 10.7034 12 12 12ZM12 13.2222C15.3752 13.2222 18.1111 10.4863 18.1111 7.11111C18.1111 3.73594 15.3752 1 12 1C8.62483 1 5.88889 3.73594 5.88889 7.11111C5.88889 10.4863 8.62483 13.2222 12 13.2222Z" fill="#616161"/>
</svg>