<svg width="22" height="21" viewBox="0 0 22 21" fill="none" xmlns="http://www.w3.org/2000/svg">
<path d="M10.0098 15.4169L10.01 15.417C10.3 15.6205 10.6462 15.7295 11 15.7295C11.3541 15.7295 11.6996 15.6204 11.9894 15.417L11.9895 15.4169L15.4341 12.9984C15.4479 13.003 15.4622 13.0078 15.477 13.0129C15.6546 13.073 15.9092 13.1619 16.2152 13.2765C16.8285 13.506 17.6422 13.8362 18.4526 14.2406C19.2676 14.6475 20.0555 15.1178 20.6323 15.6217C21.2257 16.1402 21.5 16.6096 21.5 17.0085V20.5009H0.5V17.0085C0.5 16.6096 0.774292 16.1402 1.36783 15.6217C1.94468 15.1178 2.73257 14.6475 3.54772 14.2406C4.35812 13.8362 5.17193 13.506 5.78526 13.2765C6.09131 13.1619 6.346 13.073 6.52355 13.0129C6.53839 13.0078 6.55268 13.003 6.56642 12.9984L10.0098 15.4169ZM15.8889 14.3898H15.3889V14.8898V15.612H14.6667H14.1667V16.112V17.3342V17.8342H14.6667H15.3889V18.5564V19.0564H15.8889H17.1111H17.6111V18.5564V17.8342H18.3333H18.8333V17.3342V16.112V15.612H18.3333H17.6111V14.8898V14.3898H17.1111H15.8889Z" fill="#616161" stroke="#616161"/>
<circle cx="11" cy="6" r="5.375" stroke="#616161" stroke-width="1.25"/>
</svg>
